<svg version="1.1" id="Layer_1" xmlns="http://www.w3.org/2000/svg" xmlns:xlink="http://www.w3.org/1999/xlink" x="0px" y="0px"
	 width="100%" viewBox="0 0 1500 1500" enable-background="new 0 0 1500 1500" xml:space="preserve">
<path fill="#1F2D5A" opacity="1.000000" stroke="none" 
	d="
M883.000000,1501.000000 
	C588.666748,1501.000000 294.833435,1501.000000 1.000118,1501.000000 
	C1.000079,1001.000122 1.000079,501.000275 1.000039,1.000319 
	C500.999756,1.000213 1000.999512,1.000213 1500.999512,1.000107 
	C1500.999634,500.999664 1500.999634,1000.999329 1500.999756,1500.999512 
	C1295.166626,1501.000000 1089.333374,1501.000000 883.000000,1501.000000 
M615.072876,914.591064 
	C616.074280,910.903503 617.107361,907.224243 618.072021,903.527100 
	C625.170471,876.321045 635.343689,850.398560 650.842102,826.817688 
	C654.090271,821.875732 658.157288,817.289856 662.570007,813.349548 
	C666.511597,809.829895 670.262939,811.891968 670.686951,817.201904 
	C670.805054,818.681946 670.693176,820.212952 670.456421,821.683472 
	C668.499817,833.836792 666.490784,845.981812 664.494080,858.128723 
	C662.040466,873.055664 658.703247,887.857300 660.922241,903.218140 
	C663.730469,922.657898 675.514099,934.517212 695.054321,936.234863 
	C715.565796,938.037842 733.846924,932.044983 750.012146,919.421265 
	C754.149231,916.190552 758.206543,912.857666 762.385559,909.503479 
	C763.674316,913.776184 764.701843,917.608398 765.984619,921.353149 
	C769.312439,931.067810 776.002930,936.340393 786.440063,936.658875 
	C797.883545,937.007996 804.722778,932.919678 809.299622,922.504456 
	C810.830566,919.020813 811.963501,915.346497 813.076965,911.697876 
	C816.762390,899.621521 819.861267,887.340881 824.093262,875.462158 
	C831.659180,854.225281 841.270447,833.954834 855.689880,816.339722 
	C860.671509,810.253967 866.071228,804.554382 873.749817,801.803833 
	C882.015259,798.843140 888.109802,802.527039 889.144592,811.163391 
	C890.571228,823.070190 886.692200,833.089172 876.932434,839.996155 
	C870.333679,844.666260 862.948792,848.267700 855.758179,852.047607 
	C848.421509,855.904175 842.931702,861.077271 841.945801,869.714844 
	C839.021423,895.335083 852.585449,920.220581 876.474487,930.013916 
	C904.682251,941.577698 931.826050,939.140869 956.474060,919.937134 
	C960.744202,916.610168 964.773315,912.973938 969.088623,909.332947 
	C970.655212,912.239441 971.902893,914.752075 973.326050,917.161011 
	C979.989990,928.440857 990.091309,934.316650 1002.903931,936.062439 
	C1017.257751,938.018188 1030.272461,934.328369 1042.494019,927.048218 
	C1056.998413,918.408264 1068.749634,906.660217 1079.724243,894.038513 
	C1081.282715,892.245972 1082.816040,890.431519 1084.647095,888.293274 
	C1085.639160,890.530273 1086.310181,892.042053 1086.980347,893.554260 
	C1091.908447,904.676208 1098.343262,914.810303 1108.298584,922.019653 
	C1132.706421,939.695312 1159.559204,940.784546 1186.675781,930.635986 
	C1209.462280,922.108032 1226.050781,904.853577 1240.433228,885.757812 
	C1243.143799,882.158875 1244.052368,876.903503 1244.848877,872.250977 
	C1245.569580,868.041382 1245.097534,863.608337 1244.976318,859.278748 
	C1244.837280,854.319641 1243.117920,850.033997 1238.330688,847.893066 
	C1233.411499,845.693115 1229.170410,847.640503 1225.650146,851.125061 
	C1222.457642,854.285278 1219.733887,857.924194 1216.498779,861.035339 
	C1208.105469,869.107117 1200.272827,878.012024 1190.911499,884.779297 
	C1164.567993,903.822815 1134.916016,892.477173 1127.340332,861.151978 
	C1127.184204,860.506348 1127.112793,859.840820 1126.979614,859.189087 
	C1122.293091,836.252808 1123.734375,813.084534 1124.382202,789.948303 
	C1124.389526,789.691345 1124.779785,789.445129 1125.221558,788.920410 
	C1141.650391,788.920410 1158.309814,789.062378 1174.965088,788.866699 
	C1184.819824,788.750977 1194.607910,787.747314 1203.598633,783.137634 
	C1213.323608,778.151611 1218.033081,769.004639 1216.457886,758.357422 
	C1215.443237,751.498962 1212.866821,749.045166 1205.888062,748.979248 
	C1192.723511,748.854797 1179.557129,748.938782 1166.391479,748.915100 
	C1164.991577,748.912537 1163.591919,748.770386 1162.192139,748.692993 
	C1161.990601,748.341248 1161.789062,747.989502 1161.587524,747.637817 
	C1162.868652,746.649414 1164.245850,745.762695 1165.417114,744.657837 
	C1195.714355,716.080322 1212.887329,681.662292 1211.882690,639.315918 
	C1211.577271,626.444092 1208.614136,614.220947 1200.691284,603.700317 
	C1194.940674,596.064087 1187.265625,592.050537 1177.584351,591.801575 
	C1167.021484,591.529907 1157.594727,594.764954 1148.957153,600.576660 
	C1138.846191,607.379700 1131.010498,616.438232 1124.136597,626.345398 
	C1106.508667,651.752136 1096.497681,680.411072 1089.055664,710.070251 
	C1085.862549,722.795654 1083.487183,735.726379 1080.662476,748.927551 
	C1073.339233,748.927551 1065.820312,748.492188 1058.387939,749.104736 
	C1054.469482,749.427734 1049.652344,750.526306 1047.064941,753.104919 
	C1039.545410,760.598572 1039.791382,770.359497 1042.514771,779.766235 
	C1044.930908,788.111267 1052.533813,788.581543 1059.646973,788.879028 
	C1065.089233,789.106506 1070.548340,788.924255 1076.099365,788.924255 
	C1076.099365,791.141418 1076.117188,792.780334 1076.096558,794.418640 
	C1075.920532,808.409180 1075.522095,822.401672 1075.654785,836.389221 
	C1075.713989,842.629395 1077.186890,848.856262 1069.975098,852.548157 
	C1068.190430,853.461670 1067.121826,855.747253 1065.681274,857.363953 
	C1059.806763,863.956909 1054.246826,870.875549 1047.931396,877.016418 
	C1042.368896,882.425171 1036.427368,887.759766 1029.794556,891.670349 
	C1021.974976,896.280457 1013.942322,892.575073 1012.117981,883.693237 
	C1010.633789,876.467773 1009.699219,868.698975 1010.706726,861.476013 
	C1013.324097,842.711365 1017.163269,824.117798 1020.479797,805.449768 
	C1022.575195,793.655640 1024.719604,781.868408 1026.622437,770.042725 
	C1027.615356,763.873047 1027.287964,757.895447 1020.916138,754.326782 
	C1005.382019,745.626587 985.247986,753.225647 979.867737,770.099121 
	C970.932800,798.120361 965.712219,826.930786 963.342712,856.188965 
	C962.815002,862.704834 960.791565,867.423462 956.243347,871.724426 
	C948.396790,879.144348 941.336731,887.514282 930.745483,891.362793 
	C915.178223,897.019348 898.117737,890.278198 892.393799,876.357544 
	C890.637878,872.087280 890.459961,869.192627 895.525757,866.928101 
	C900.026978,864.916016 904.114563,861.848938 908.129456,858.900024 
	C929.063904,843.522949 939.718872,822.816162 939.236755,796.797974 
	C938.562744,760.429260 905.407898,740.841064 873.073120,757.557068 
	C859.247375,764.704529 847.044739,774.237854 838.330627,787.025879 
	C829.381287,800.158936 821.956665,814.347351 814.154663,828.236816 
	C811.542175,832.887634 809.821960,838.039673 807.981750,842.296570 
	C807.981750,831.086853 807.793030,819.434753 808.123596,807.797424 
	C808.199646,805.118469 809.477234,802.020447 811.185242,799.911682 
	C827.324280,779.986206 844.277405,760.691162 859.808838,740.309875 
	C877.629150,716.924866 892.383789,691.603333 900.531006,663.033936 
	C906.529663,641.999084 909.801514,620.596130 903.921631,598.990295 
	C899.658142,583.323914 891.477661,570.189270 874.356079,566.354126 
	C859.448608,563.015015 846.065002,567.788330 834.255371,577.121521 
	C822.786133,586.185852 814.735901,597.985840 807.972107,610.717346 
	C787.028809,650.138306 776.270935,692.740173 768.966797,736.402832 
	C762.244446,776.587952 758.925964,817.034485 759.537720,857.794922 
	C759.564880,859.603394 758.899841,861.898132 757.707886,863.170898 
	C750.653137,870.704224 743.581482,878.255188 736.017578,885.262878 
	C732.690002,888.345703 728.427734,890.784485 724.168945,892.418762 
	C716.200439,895.476562 710.167969,891.956360 708.725708,883.542908 
	C708.007812,879.354858 707.908691,874.839844 708.632629,870.663940 
	C711.700867,852.965454 715.519836,835.393616 718.408264,817.668579 
	C720.758240,803.247925 723.078674,788.716309 723.741333,774.157837 
	C724.358398,760.600525 715.665527,752.694641 702.075195,751.814392 
	C686.874207,750.829895 674.033081,756.896179 662.529236,765.882263 
	C642.934753,781.188416 629.636597,801.432861 619.006775,823.580383 
	C616.025208,829.792542 613.339722,836.146729 610.518433,842.435791 
	C610.007690,840.438477 609.956909,838.591614 610.292969,836.818115 
	C613.016602,822.445190 615.718201,808.066833 618.619080,793.729187 
	C620.662048,783.631836 623.416870,773.662903 625.086853,763.510498 
	C626.452759,755.207153 623.576538,752.312439 615.054626,751.852600 
	C611.736389,751.673523 608.387817,751.748718 605.068420,751.955322 
	C590.489502,752.862854 581.503540,759.773254 577.186523,773.580566 
	C568.897095,800.093262 564.057251,827.249146 563.183533,855.007446 
	C562.995667,860.974121 561.356506,865.343079 557.021057,869.335266 
	C548.681885,877.014282 540.794250,885.191101 529.402100,888.446777 
	C511.962708,893.430725 499.618042,886.426941 495.922882,868.742065 
	C494.539490,862.121033 493.973419,855.195007 494.067963,848.422485 
	C494.497986,817.629028 500.600006,787.555969 506.688385,757.546143 
	C511.084320,735.878357 516.552551,714.429565 521.419922,692.855347 
	C524.111084,680.927368 519.552734,673.150574 507.550659,670.668884 
	C501.135651,669.342468 494.251221,668.927185 487.750702,669.649353 
	C473.112640,671.275452 468.878693,675.879883 465.557190,690.278015 
	C458.120392,722.515869 451.078735,754.861267 442.778259,786.878296 
	C436.345612,811.690674 427.519562,835.783813 413.647827,857.639099 
	C406.321106,869.182495 397.384277,879.154724 384.829193,885.303833 
	C359.726715,897.598083 334.599945,889.507507 322.718567,864.308228 
	C318.755524,855.903015 316.216644,846.380066 315.172546,837.126038 
	C311.642303,805.836121 316.351105,775.386902 326.990753,745.830750 
	C349.274689,683.927917 401.073059,647.452332 466.848816,647.027893 
	C488.334015,646.889221 509.263153,650.555969 530.095947,655.197205 
	C546.535645,658.859619 560.185669,650.392273 563.570679,633.802673 
	C565.682922,623.450806 563.187256,615.211975 550.813782,611.726318 
	C512.174255,600.841370 473.006042,598.410706 433.572693,605.004883 
	C358.281219,617.595398 305.177643,659.190369 274.852295,729.370422 
	C260.602356,762.348145 255.702255,796.983826 256.848206,832.780396 
	C257.411743,850.383301 260.715729,867.112549 268.119324,883.006653 
	C293.197205,936.844116 350.963776,946.130554 388.781311,928.849548 
	C410.236816,919.045166 424.083221,901.623047 434.900024,881.368713 
	C435.678925,879.910339 436.456970,878.451416 437.640320,876.233948 
	C438.612732,880.601624 439.205841,883.881409 440.078430,887.085144 
	C445.809418,908.126099 456.898071,925.223267 478.389160,932.343994 
	C503.204102,940.565979 527.374207,937.825989 549.672302,923.550903 
	C555.243896,919.983887 560.259155,915.547729 565.755066,911.338806 
	C566.559326,914.040771 567.251099,916.715515 568.148560,919.319397 
	C572.087097,930.746399 579.319702,936.472534 589.928528,936.655701 
	C601.622803,936.857605 608.305725,932.193420 613.006104,920.516052 
	C613.688599,918.820557 614.273254,917.085693 615.072876,914.591064 
M256.998810,383.500000 
	C256.998810,435.930786 256.998810,488.361603 256.998810,540.757507 
	C268.184784,540.757507 278.766388,540.757507 289.919617,540.757507 
	C289.919617,456.427856 289.919617,372.387634 289.919617,288.316284 
	C597.588867,288.316284 904.680542,288.316284 1212.320312,288.316284 
	C1212.320312,372.618347 1212.320312,456.677338 1212.320312,540.796631 
	C1223.458862,540.796631 1234.047363,540.796631 1244.656250,540.796631 
	C1244.656250,445.324493 1244.656250,350.105011 1244.656250,254.929810 
	C915.364868,254.929810 586.418457,254.929810 256.998810,254.929810 
	C256.998810,297.589325 256.998810,340.044647 256.998810,383.500000 
M1169.499878,1247.276001 
	C1194.578491,1247.276001 1219.657104,1247.276001 1244.756470,1247.276001 
	C1244.756470,1151.506104 1244.756470,1056.416992 1244.756470,961.177307 
	C1233.926514,961.177307 1223.342041,961.177307 1212.196045,961.177307 
	C1212.196045,1045.450562 1212.196045,1129.500000 1212.196045,1213.575195 
	C904.416687,1213.575195 597.200012,1213.575195 289.607788,1213.575195 
	C289.607788,1129.279541 289.607788,1045.337036 289.607788,961.325562 
	C278.527863,961.325562 267.827789,961.325562 257.288513,961.325562 
	C257.288513,1056.802368 257.288513,1151.904419 257.288513,1247.276001 
	C561.218628,1247.276001 864.859192,1247.276001 1169.499878,1247.276001 
M1039.474365,718.013733 
	C1041.357544,716.138733 1043.451904,714.430847 1045.089233,712.361328 
	C1054.885132,699.979065 1053.729980,680.299438 1042.798828,671.588196 
	C1027.019287,659.013245 997.895752,663.320374 986.447998,679.921997 
	C975.656799,695.571472 982.008179,717.941528 999.235779,723.328247 
	C1012.987122,727.628052 1026.517456,726.817627 1039.474365,718.013733 
z"/>
<path fill="#FAFAFA" opacity="1.000000" stroke="none" 
	d="
M614.988037,914.980103 
	C614.273254,917.085693 613.688599,918.820557 613.006104,920.516052 
	C608.305725,932.193420 601.622803,936.857605 589.928528,936.655701 
	C579.319702,936.472534 572.087097,930.746399 568.148560,919.319397 
	C567.251099,916.715515 566.559326,914.040771 565.755066,911.338806 
	C560.259155,915.547729 555.243896,919.983887 549.672302,923.550903 
	C527.374207,937.825989 503.204102,940.565979 478.389160,932.343994 
	C456.898071,925.223267 445.809418,908.126099 440.078430,887.085144 
	C439.205841,883.881409 438.612732,880.601624 437.640320,876.233948 
	C436.456970,878.451416 435.678925,879.910339 434.900024,881.368713 
	C424.083221,901.623047 410.236816,919.045166 388.781311,928.849548 
	C350.963776,946.130554 293.197205,936.844116 268.119324,883.006653 
	C260.715729,867.112549 257.411743,850.383301 256.848206,832.780396 
	C255.702255,796.983826 260.602356,762.348145 274.852295,729.370422 
	C305.177643,659.190369 358.281219,617.595398 433.572693,605.004883 
	C473.006042,598.410706 512.174255,600.841370 550.813782,611.726318 
	C563.187256,615.211975 565.682922,623.450806 563.570679,633.802673 
	C560.185669,650.392273 546.535645,658.859619 530.095947,655.197205 
	C509.263153,650.555969 488.334015,646.889221 466.848816,647.027893 
	C401.073059,647.452332 349.274689,683.927917 326.990753,745.830750 
	C316.351105,775.386902 311.642303,805.836121 315.172546,837.126038 
	C316.216644,846.380066 318.755524,855.903015 322.718567,864.308228 
	C334.599945,889.507507 359.726715,897.598083 384.829193,885.303833 
	C397.384277,879.154724 406.321106,869.182495 413.647827,857.639099 
	C427.519562,835.783813 436.345612,811.690674 442.778259,786.878296 
	C451.078735,754.861267 458.120392,722.515869 465.557190,690.278015 
	C468.878693,675.879883 473.112640,671.275452 487.750702,669.649353 
	C494.251221,668.927185 501.135651,669.342468 507.550659,670.668884 
	C519.552734,673.150574 524.111084,680.927368 521.419922,692.855347 
	C516.552551,714.429565 511.084320,735.878357 506.688385,757.546143 
	C500.600006,787.555969 494.497986,817.629028 494.067963,848.422485 
	C493.973419,855.195007 494.539490,862.121033 495.922882,868.742065 
	C499.618042,886.426941 511.962708,893.430725 529.402100,888.446777 
	C540.794250,885.191101 548.681885,877.014282 557.021057,869.335266 
	C561.356506,865.343079 562.995667,860.974121 563.183533,855.007446 
	C564.057251,827.249146 568.897095,800.093262 577.186523,773.580566 
	C581.503540,759.773254 590.489502,752.862854 605.068420,751.955322 
	C608.387817,751.748718 611.736389,751.673523 615.054626,751.852600 
	C623.576538,752.312439 626.452759,755.207153 625.086853,763.510498 
	C623.416870,773.662903 620.662048,783.631836 618.619080,793.729187 
	C615.718201,808.066833 613.016602,822.445190 610.292969,836.818115 
	C609.956909,838.591614 610.007690,840.438477 610.518433,842.435791 
	C613.339722,836.146729 616.025208,829.792542 619.006775,823.580383 
	C629.636597,801.432861 642.934753,781.188416 662.529236,765.882263 
	C674.033081,756.896179 686.874207,750.829895 702.075195,751.814392 
	C715.665527,752.694641 724.358398,760.600525 723.741333,774.157837 
	C723.078674,788.716309 720.758240,803.247925 718.408264,817.668579 
	C715.519836,835.393616 711.700867,852.965454 708.632629,870.663940 
	C707.908691,874.839844 708.007812,879.354858 708.725708,883.542908 
	C710.167969,891.956360 716.200439,895.476562 724.168945,892.418762 
	C728.427734,890.784485 732.690002,888.345703 736.017578,885.262878 
	C743.581482,878.255188 750.653137,870.704224 757.707886,863.170898 
	C758.899841,861.898132 759.564880,859.603394 759.537720,857.794922 
	C758.925964,817.034485 762.244446,776.587952 768.966797,736.402832 
	C776.270935,692.740173 787.028809,650.138306 807.972107,610.717346 
	C814.735901,597.985840 822.786133,586.185852 834.255371,577.121521 
	C846.065002,567.788330 859.448608,563.015015 874.356079,566.354126 
	C891.477661,570.189270 899.658142,583.323914 903.921631,598.990295 
	C909.801514,620.596130 906.529663,641.999084 900.531006,663.033936 
	C892.383789,691.603333 877.629150,716.924866 859.808838,740.309875 
	C844.277405,760.691162 827.324280,779.986206 811.185242,799.911682 
	C809.477234,802.020447 808.199646,805.118469 808.123596,807.797424 
	C807.793030,819.434753 807.981750,831.086853 807.981750,842.296570 
	C809.821960,838.039673 811.542175,832.887634 814.154663,828.236816 
	C821.956665,814.347351 829.381287,800.158936 838.330627,787.025879 
	C847.044739,774.237854 859.247375,764.704529 873.073120,757.557068 
	C905.407898,740.841064 938.562744,760.429260 939.236755,796.797974 
	C939.718872,822.816162 929.063904,843.522949 908.129456,858.900024 
	C904.114563,861.848938 900.026978,864.916016 895.525757,866.928101 
	C890.459961,869.192627 890.637878,872.087280 892.393799,876.357544 
	C898.117737,890.278198 915.178223,897.019348 930.745483,891.362793 
	C941.336731,887.514282 948.396790,879.144348 956.243347,871.724426 
	C960.791565,867.423462 962.815002,862.704834 963.342712,856.188965 
	C965.712219,826.930786 970.932800,798.120361 979.867737,770.099121 
	C985.247986,753.225647 1005.382019,745.626587 1020.916138,754.326782 
	C1027.287964,757.895447 1027.615356,763.873047 1026.622437,770.042725 
	C1024.719604,781.868408 1022.575195,793.655640 1020.479797,805.449768 
	C1017.163269,824.117798 1013.324097,842.711365 1010.706726,861.476013 
	C1009.699219,868.698975 1010.633789,876.467773 1012.117981,883.693237 
	C1013.942322,892.575073 1021.974976,896.280457 1029.794556,891.670349 
	C1036.427368,887.759766 1042.368896,882.425171 1047.931396,877.016418 
	C1054.246826,870.875549 1059.806763,863.956909 1065.681274,857.363953 
	C1067.121826,855.747253 1068.190430,853.461670 1069.975098,852.548157 
	C1077.186890,848.856262 1075.713989,842.629395 1075.654785,836.389221 
	C1075.522095,822.401672 1075.920532,808.409180 1076.096558,794.418640 
	C1076.117188,792.780334 1076.099365,791.141418 1076.099365,788.924255 
	C1070.548340,788.924255 1065.089233,789.106506 1059.646973,788.879028 
	C1052.533813,788.581543 1044.930908,788.111267 1042.514771,779.766235 
	C1039.791382,770.359497 1039.545410,760.598572 1047.064941,753.104919 
	C1049.652344,750.526306 1054.469482,749.427734 1058.387939,749.104736 
	C1065.820312,748.492188 1073.339233,748.927551 1080.662476,748.927551 
	C1083.487183,735.726379 1085.862549,722.795654 1089.055664,710.070251 
	C1096.497681,680.411072 1106.508667,651.752136 1124.136597,626.345398 
	C1131.010498,616.438232 1138.846191,607.379700 1148.957153,600.576660 
	C1157.594727,594.764954 1167.021484,591.529907 1177.584351,591.801575 
	C1187.265625,592.050537 1194.940674,596.064087 1200.691284,603.700317 
	C1208.614136,614.220947 1211.577271,626.444092 1211.882690,639.315918 
	C1212.887329,681.662292 1195.714355,716.080322 1165.417114,744.657837 
	C1164.245850,745.762695 1162.868652,746.649414 1161.587524,747.637817 
	C1161.789062,747.989502 1161.990601,748.341248 1162.192139,748.692993 
	C1163.591919,748.770386 1164.991577,748.912537 1166.391479,748.915100 
	C1179.557129,748.938782 1192.723511,748.854797 1205.888062,748.979248 
	C1212.866821,749.045166 1215.443237,751.498962 1216.457886,758.357422 
	C1218.033081,769.004639 1213.323608,778.151611 1203.598633,783.137634 
	C1194.607910,787.747314 1184.819824,788.750977 1174.965088,788.866699 
	C1158.309814,789.062378 1141.650391,788.920410 1125.221558,788.920410 
	C1124.779785,789.445129 1124.389526,789.691345 1124.382202,789.948303 
	C1123.734375,813.084534 1122.293091,836.252808 1126.979614,859.189087 
	C1127.112793,859.840820 1127.184204,860.506348 1127.340332,861.151978 
	C1134.916016,892.477173 1164.567993,903.822815 1190.911499,884.779297 
	C1200.272827,878.012024 1208.105469,869.107117 1216.498779,861.035339 
	C1219.733887,857.924194 1222.457642,854.285278 1225.650146,851.125061 
	C1229.170410,847.640503 1233.411499,845.693115 1238.330688,847.893066 
	C1243.117920,850.033997 1244.837280,854.319641 1244.976318,859.278748 
	C1245.097534,863.608337 1245.569580,868.041382 1244.848877,872.250977 
	C1244.052368,876.903503 1243.143799,882.158875 1240.433228,885.757812 
	C1226.050781,904.853577 1209.462280,922.108032 1186.675781,930.635986 
	C1159.559204,940.784546 1132.706421,939.695312 1108.298584,922.019653 
	C1098.343262,914.810303 1091.908447,904.676208 1086.980347,893.554260 
	C1086.310181,892.042053 1085.639160,890.530273 1084.647095,888.293274 
	C1082.816040,890.431519 1081.282715,892.245972 1079.724243,894.038513 
	C1068.749634,906.660217 1056.998413,918.408264 1042.494019,927.048218 
	C1030.272461,934.328369 1017.257751,938.018188 1002.903931,936.062439 
	C990.091309,934.316650 979.989990,928.440857 973.326050,917.161011 
	C971.902893,914.752075 970.655212,912.239441 969.088623,909.332947 
	C964.773315,912.973938 960.744202,916.610168 956.474060,919.937134 
	C931.826050,939.140869 904.682251,941.577698 876.474487,930.013916 
	C852.585449,920.220581 839.021423,895.335083 841.945801,869.714844 
	C842.931702,861.077271 848.421509,855.904175 855.758179,852.047607 
	C862.948792,848.267700 870.333679,844.666260 876.932434,839.996155 
	C886.692200,833.089172 890.571228,823.070190 889.144592,811.163391 
	C888.109802,802.527039 882.015259,798.843140 873.749817,801.803833 
	C866.071228,804.554382 860.671509,810.253967 855.689880,816.339722 
	C841.270447,833.954834 831.659180,854.225281 824.093262,875.462158 
	C819.861267,887.340881 816.762390,899.621521 813.076965,911.697876 
	C811.963501,915.346497 810.830566,919.020813 809.299622,922.504456 
	C804.722778,932.919678 797.883545,937.007996 786.440063,936.658875 
	C776.002930,936.340393 769.312439,931.067810 765.984619,921.353149 
	C764.701843,917.608398 763.674316,913.776184 762.385559,909.503479 
	C758.206543,912.857666 754.149231,916.190552 750.012146,919.421265 
	C733.846924,932.044983 715.565796,938.037842 695.054321,936.234863 
	C675.514099,934.517212 663.730469,922.657898 660.922241,903.218140 
	C658.703247,887.857300 662.040466,873.055664 664.494080,858.128723 
	C666.490784,845.981812 668.499817,833.836792 670.456421,821.683472 
	C670.693176,820.212952 670.805054,818.681946 670.686951,817.201904 
	C670.262939,811.891968 666.511597,809.829895 662.570007,813.349548 
	C658.157288,817.289856 654.090271,821.875732 650.842102,826.817688 
	C635.343689,850.398560 625.170471,876.321045 618.072021,903.527100 
	C617.107361,907.224243 616.074280,910.903503 614.988037,914.980103 
M853.722656,606.118591 
	C845.999146,613.528320 842.562317,623.347900 839.069092,633.002075 
	C827.769897,664.229858 821.247681,696.632874 816.028687,729.328552 
	C814.820740,736.896362 813.861694,744.503967 812.788147,752.093262 
	C830.126404,732.950256 843.534973,711.688171 854.041260,688.582825 
	C861.587463,671.987244 867.643982,654.867188 868.250000,636.500732 
	C868.530823,627.991516 867.462463,619.263855 865.682922,610.917297 
	C864.337463,604.607300 859.827454,603.211487 853.722656,606.118591 
M1166.495117,690.006958 
	C1168.534668,683.513916 1170.979248,677.115479 1172.523193,670.506592 
	C1175.161743,659.211731 1175.922607,647.704468 1172.694336,636.414307 
	C1171.947021,633.800476 1169.266235,630.567383 1166.875244,629.952332 
	C1164.822998,629.424500 1161.094604,631.618591 1159.551025,633.686462 
	C1156.203247,638.171570 1152.818237,643.040833 1151.150635,648.293457 
	C1145.378418,666.475281 1139.843262,684.764709 1135.185547,703.256897 
	C1132.038818,715.750183 1130.518677,728.653198 1128.270996,741.372925 
	C1145.696777,727.701843 1158.218872,710.874634 1166.495117,690.006958 
z"/>
<path fill="#FAFAFA" opacity="1.000000" stroke="none" 
	d="
M256.998810,383.000000 
	C256.998810,340.044647 256.998810,297.589325 256.998810,254.929810 
	C586.418457,254.929810 915.364868,254.929810 1244.656250,254.929810 
	C1244.656250,350.105011 1244.656250,445.324493 1244.656250,540.796631 
	C1234.047363,540.796631 1223.458862,540.796631 1212.320312,540.796631 
	C1212.320312,456.677338 1212.320312,372.618347 1212.320312,288.316284 
	C904.680542,288.316284 597.588867,288.316284 289.919617,288.316284 
	C289.919617,372.387634 289.919617,456.427856 289.919617,540.757507 
	C278.766388,540.757507 268.184784,540.757507 256.998810,540.757507 
	C256.998810,488.361603 256.998810,435.930786 256.998810,383.000000 
z"/>
<path fill="#FAFAFA" opacity="1.000000" stroke="none" 
	d="
M1168.999756,1247.276001 
	C864.859192,1247.276001 561.218628,1247.276001 257.288513,1247.276001 
	C257.288513,1151.904419 257.288513,1056.802368 257.288513,961.325562 
	C267.827789,961.325562 278.527863,961.325562 289.607788,961.325562 
	C289.607788,1045.337036 289.607788,1129.279541 289.607788,1213.575195 
	C597.200012,1213.575195 904.416687,1213.575195 1212.196045,1213.575195 
	C1212.196045,1129.500000 1212.196045,1045.450562 1212.196045,961.177307 
	C1223.342041,961.177307 1233.926514,961.177307 1244.756470,961.177307 
	C1244.756470,1056.416992 1244.756470,1151.506104 1244.756470,1247.276001 
	C1219.657104,1247.276001 1194.578491,1247.276001 1168.999756,1247.276001 
z"/>
<path fill="#F9F9FA" opacity="1.000000" stroke="none" 
	d="
M1039.195435,718.237305 
	C1026.517456,726.817627 1012.987122,727.628052 999.235779,723.328247 
	C982.008179,717.941528 975.656799,695.571472 986.447998,679.921997 
	C997.895752,663.320374 1027.019287,659.013245 1042.798828,671.588196 
	C1053.729980,680.299438 1054.885132,699.979065 1045.089233,712.361328 
	C1043.451904,714.430847 1041.357544,716.138733 1039.195435,718.237305 
z"/>
<path fill="#222F5C" opacity="1.000000" stroke="none" 
	d="
M854.023438,605.908813 
	C859.827454,603.211487 864.337463,604.607300 865.682922,610.917297 
	C867.462463,619.263855 868.530823,627.991516 868.250000,636.500732 
	C867.643982,654.867188 861.587463,671.987244 854.041260,688.582825 
	C843.534973,711.688171 830.126404,732.950256 812.788147,752.093262 
	C813.861694,744.503967 814.820740,736.896362 816.028687,729.328552 
	C821.247681,696.632874 827.769897,664.229858 839.069092,633.002075 
	C842.562317,623.347900 845.999146,613.528320 854.023438,605.908813 
z"/>
<path fill="#22305C" opacity="1.000000" stroke="none" 
	d="
M1166.334229,690.357178 
	C1158.218872,710.874634 1145.696777,727.701843 1128.270996,741.372925 
	C1130.518677,728.653198 1132.038818,715.750183 1135.185547,703.256897 
	C1139.843262,684.764709 1145.378418,666.475281 1151.150635,648.293457 
	C1152.818237,643.040833 1156.203247,638.171570 1159.551025,633.686462 
	C1161.094604,631.618591 1164.822998,629.424500 1166.875244,629.952332 
	C1169.266235,630.567383 1171.947021,633.800476 1172.694336,636.414307 
	C1175.922607,647.704468 1175.161743,659.211731 1172.523193,670.506592 
	C1170.979248,677.115479 1168.534668,683.513916 1166.334229,690.357178 
z"/>
</svg>